<?xml version="1.0" standalone="no"?>
<!DOCTYPE svg PUBLIC "-//W3C//DTD SVG 20010904//EN"
 "http://www.w3.org/TR/2001/REC-SVG-20010904/DTD/svg10.dtd">
<svg version="1.0" xmlns="http://www.w3.org/2000/svg"
 width="719.000000pt" height="392.000000pt" viewBox="0 0 719.000000 392.000000"
 preserveAspectRatio="xMidYMid meet">

<g transform="translate(0.000000,392.000000) scale(0.100000,-0.100000)"
fill="#000000" stroke="none">
<path d="M0 1960 l0 -1960 3595 0 3595 0 0 1960 0 1960 -3595 0 -3595 0 0
-1960z m5040 1922 c0 -10 -18 -20 -240 -137 -102 -54 -223 -122 -270 -153
-114 -73 -412 -297 -513 -384 -166 -143 -580 -545 -637 -619 -32 -41 -95 -116
-140 -165 -224 -245 -544 -664 -913 -1196 -203 -292 -625 -929 -686 -1035 -29
-51 -59 -93 -67 -93 -22 0 -126 93 -219 196 -48 55 -232 243 -409 419 -177
176 -373 379 -436 450 -205 230 -228 251 -288 264 -29 6 -90 11 -134 11 l-82
0 44 33 c162 119 656 377 738 385 103 9 212 -65 459 -316 164 -167 184 -184
199 -171 10 8 263 282 563 609 647 707 682 741 986 969 676 506 1442 871 1955
930 41 5 78 9 83 10 4 0 7 -3 7 -7z m-663 -1122 c9 -18 13 -100 13 -302 l0
-278 255 0 256 0 24 -25 c23 -22 25 -31 25 -128 0 -90 -3 -108 -21 -131 l-20
-26 -260 0 -260 0 3 -617 c4 -544 6 -625 21 -676 27 -91 66 -145 132 -180 57
-31 226 -30 342 1 147 40 166 28 171 -107 5 -143 -26 -174 -222 -219 -104 -24
-363 -22 -431 2 -189 69 -290 180 -345 377 -31 113 -40 313 -40 897 l0 522
-130 0 c-127 0 -132 1 -156 25 -25 25 -26 29 -22 136 4 149 4 149 179 149 125
0 129 1 133 23 3 12 8 119 11 237 8 272 3 262 145 312 125 44 178 46 197 8z
m-986 -593 c9 -7 21 -22 27 -34 16 -29 17 -1935 1 -1981 -16 -46 -48 -54 -194
-50 -119 3 -128 4 -146 27 -18 22 -19 54 -19 1013 l0 989 25 24 c23 24 29 25
157 25 89 -1 138 -5 149 -13z m2272 -7 l26 -20 4 -673 c4 -728 6 -751 61 -872
66 -142 234 -225 456 -225 274 0 450 124 506 356 15 59 18 164 23 740 6 642 7
673 25 693 18 19 29 21 160 21 123 0 144 -3 166 -20 l25 -19 3 -578 c3 -625
-3 -773 -42 -927 -89 -348 -382 -561 -802 -583 -352 -18 -658 99 -807 309 -55
78 -91 164 -119 288 -21 91 -22 123 -25 787 l-4 693 25 25 c24 24 29 25 159
25 120 0 137 -2 160 -20z"/>
</g>
</svg>
